# xmcd
#
# Track frame offsets: 
#        150
#        12983
#        27843
#        37941
#        49504
#        62648
#        75578
#        86877
#        99992
#        111660
#        124258
#        136250
#
# Disc length: 2011 seconds
#
# Revision: 0
# Processed by: cddbd v1.5.2PL0 Copyright (c) Steve Scherf et al.
# Submitted via: ExactAudioCopy v1.0b6
#
DISCID=9607d90c
DTITLE=Various Artist - Electro Blues Volume One
DYEAR=2013
DGENRE=Blues
TTITLE0=Big Mama Thornton - Hound Dog
TTITLE1=Lightnin’ Hopkins - Got To Move Your Baby
TTITLE2=B.K. Anderson - Minimum Wage
TTITLE3=Huey "Piano" Smith and The Crowns - Don't You Just Know It
TTITLE4=Little Junior's Blue Flames - Feeling Good
TTITLE5=Tarheel Slim - Number 9
TTITLE6=Big Joe Turner - Lipstick, Powder and Paint
TTITLE7=Fluffy Hunter and Jesse Powel - Walkin' Blues
TTITLE8=Got My Mojo Workin' Ann Cole
TTITLE9=Julia Lee - Gotta Gimme Watcha Got
TTITLE10=Roscoe Gordon - No More Doggin'
TTITLE11=Amos Milburn - One Scotch, One Burbon, One Beer
EXTD=
EXTT0=
EXTT1=
EXTT2=
EXTT3=
EXTT4=
EXTT5=
EXTT6=
EXTT7=
EXTT8=
EXTT9=
EXTT10=
EXTT11=
PLAYORDER=
